<svg width="43" height="43" viewBox="0 0 43 43" fill="none" xmlns="http://www.w3.org/2000/svg">
<path d="M7.13161 17.2428L7.13161 17.2427C7.13615 13.5072 8.62209 9.92596 11.2635 7.28454C13.9048 4.64326 17.4858 3.15734 21.2211 3.15263C24.9564 3.15734 28.5374 4.64326 31.1786 7.28454C33.8201 9.92596 35.306 13.5072 35.3106 17.2427V17.2429C35.3151 20.2929 34.3189 23.2603 32.4748 25.6898L32.461 25.7079L32.4593 25.7107L32.4561 25.7149L32.4103 25.7749L32.2676 25.9617C32.2143 26.0313 32.1595 26.1026 32.1146 26.1607C32.0921 26.1898 32.0725 26.215 32.057 26.2348L32.0378 26.2591L32.0318 26.2666C32.0302 26.2685 32.0296 26.2693 32.0297 26.2692L21.2211 39.0164L10.4153 26.2727C10.4153 26.2727 10.4153 26.2727 10.4151 26.2725C10.4149 26.2722 10.4142 26.2714 10.4131 26.2701L10.407 26.2625L10.3874 26.2379C10.3716 26.2178 10.3517 26.1923 10.329 26.163C10.2836 26.1043 10.2285 26.0327 10.175 25.9628C10.1216 25.8931 10.0701 25.8256 10.0319 25.7756L9.98617 25.7156L9.97352 25.6989L9.97022 25.6946L9.96938 25.6935L9.96935 25.6934C8.12409 23.263 7.1272 20.2944 7.13161 17.2428ZM27.0263 17.2427V17.2421C27.0263 16.0939 26.6859 14.9715 26.048 14.0169C25.4101 13.0622 24.5034 12.3181 23.4427 11.8787C22.3819 11.4394 21.2146 11.3244 20.0885 11.5484C18.9624 11.7724 17.928 12.3253 17.1161 13.1372C16.3043 13.949 15.7514 14.9834 15.5274 16.1096C15.3034 17.2357 15.4183 18.4029 15.8577 19.4637C16.2971 20.5245 17.0412 21.4311 17.9958 22.069C18.9505 22.7069 20.0729 23.0474 21.2211 23.0474L21.2216 23.0474C22.7606 23.0456 24.2361 22.4335 25.3243 21.3453C26.4125 20.2571 27.0246 18.7816 27.0263 17.2427Z" fill="#198038" stroke="white"/>
<circle cx="21.8842" cy="16.5789" r="7.29474" fill="#198038"/>
<g clip-path="url(#clip0_14_4641)">
<path d="M20.6407 13.7605H16.5789V14.9211H20.6407V13.7605Z" fill="white"/>
<path d="M28.4245 12.6L25.5232 9.69869L24.7026 10.5192L26.4433 12.26V14.9211C26.4437 15.2287 26.5661 15.5237 26.7836 15.7413C27.0012 15.9588 27.2962 16.0812 27.6039 16.0816V22.1743C27.6039 22.4052 27.5122 22.6266 27.3489 22.7898C27.1857 22.953 26.9643 23.0447 26.7335 23.0447C26.5026 23.0447 26.2812 22.953 26.118 22.7898C25.9548 22.6266 25.8631 22.4052 25.8631 22.1743V17.2421C25.8631 17.0882 25.8019 16.9406 25.6931 16.8318C25.5843 16.723 25.4367 16.6618 25.2828 16.6618H22.9618V10.8592C22.9618 10.7053 22.9006 10.5577 22.7918 10.4489C22.683 10.3401 22.5354 10.279 22.3815 10.279H14.8381C14.6842 10.279 14.5366 10.3401 14.4278 10.4489C14.319 10.5577 14.2578 10.7053 14.2578 10.8592V23.0447H13.0973V24.2053H24.1223V23.0447H22.9618V17.8224H24.7026V22.1163C24.6957 22.5894 24.8513 23.0505 25.1433 23.4227C25.4353 23.7949 25.8461 24.0558 26.3072 24.1618C26.6034 24.2247 26.91 24.2207 27.2044 24.1501C27.4989 24.0794 27.7739 23.944 28.0093 23.7535C28.2448 23.5631 28.4348 23.3225 28.5654 23.0493C28.696 22.7761 28.764 22.4772 28.7644 22.1743V13.4207C28.7644 13.2683 28.7344 13.1174 28.6761 12.9766C28.6177 12.8357 28.5323 12.7078 28.4245 12.6ZM21.8012 23.0447H15.4183V11.4395H21.8012V23.0447Z" fill="white"/>
</g>
<defs>
<clipPath id="clip0_14_4641">
<rect width="18.5684" height="18.5684" fill="white" transform="translate(11.9368 7.9579)"/>
</clipPath>
</defs>
</svg>
