<svg width="43" height="43" viewBox="0 0 43 43" fill="none" xmlns="http://www.w3.org/2000/svg">
<path d="M21.2211 2.65263C17.3532 2.65734 13.645 4.19595 10.91 6.93099C8.17492 9.66602 6.63631 13.3742 6.63161 17.2421C6.62704 20.4031 7.65969 23.4782 9.57112 25.9958C9.57112 25.9958 9.96902 26.519 10.0329 26.5949L21.2211 39.7895L32.4139 26.5892C32.4727 26.5185 32.871 25.9953 32.871 25.9953L32.873 25.9921C34.7833 23.4755 35.8153 20.4016 35.8106 17.2421C35.8059 13.3742 34.2672 9.66602 31.5322 6.93099C28.7972 4.19595 25.089 2.65734 21.2211 2.65263ZM21.2211 22.5474C20.1718 22.5474 19.1461 22.2362 18.2736 21.6533C17.4012 21.0703 16.7212 20.2418 16.3197 19.2723C15.9181 18.3029 15.8131 17.2362 16.0178 16.2071C16.2225 15.178 16.7277 14.2327 17.4697 13.4907C18.2116 12.7488 19.157 12.2435 20.1861 12.0388C21.2152 11.8341 22.2819 11.9391 23.2513 12.3407C24.2207 12.7422 25.0493 13.4222 25.6322 14.2947C26.2152 15.1671 26.5263 16.1928 26.5263 17.2421C26.5248 18.6487 25.9653 19.9972 24.9707 20.9917C23.9761 21.9863 22.6276 22.5458 21.2211 22.5474Z" fill="#42BE65"/>
<circle cx="21.8842" cy="16.5789" r="7.29474" fill="#42BE65"/>
<g clip-path="url(#clip0_14_4638)">
<path d="M20.6407 13.7605H16.5789V14.921H20.6407V13.7605Z" fill="white"/>
<path d="M28.4245 12.6L25.5232 9.69868L24.7026 10.5192L26.4433 12.26V14.921C26.4437 15.2287 26.5661 15.5237 26.7836 15.7413C27.0012 15.9588 27.2962 16.0812 27.6039 16.0816V22.1743C27.6039 22.4052 27.5122 22.6266 27.3489 22.7898C27.1857 22.953 26.9643 23.0447 26.7335 23.0447C26.5026 23.0447 26.2812 22.953 26.118 22.7898C25.9548 22.6266 25.8631 22.4052 25.8631 22.1743V17.2421C25.8631 17.0882 25.8019 16.9406 25.6931 16.8318C25.5843 16.723 25.4367 16.6618 25.2828 16.6618H22.9618V10.8592C22.9618 10.7053 22.9006 10.5577 22.7918 10.4489C22.683 10.3401 22.5354 10.2789 22.3815 10.2789H14.8381C14.6842 10.2789 14.5366 10.3401 14.4278 10.4489C14.319 10.5577 14.2578 10.7053 14.2578 10.8592V23.0447H13.0973V24.2053H24.1223V23.0447H22.9618V17.8224H24.7026V22.1163C24.6957 22.5894 24.8513 23.0505 25.1433 23.4227C25.4353 23.7949 25.8461 24.0558 26.3072 24.1618C26.6034 24.2247 26.91 24.2207 27.2044 24.1501C27.4989 24.0794 27.7739 23.944 28.0093 23.7535C28.2448 23.5631 28.4348 23.3225 28.5654 23.0493C28.696 22.7761 28.764 22.4772 28.7644 22.1743V13.4207C28.7644 13.2683 28.7344 13.1174 28.6761 12.9765C28.6177 12.8357 28.5323 12.7078 28.4245 12.6ZM21.8012 23.0447H15.4183V11.4395H21.8012V23.0447Z" fill="white"/>
</g>
<defs>
<clipPath id="clip0_14_4638">
<rect width="18.5684" height="18.5684" fill="white" transform="translate(11.9368 7.95789)"/>
</clipPath>
</defs>
</svg>
