<svg width="39" height="39" viewBox="0 0 39 39" fill="none" xmlns="http://www.w3.org/2000/svg">
<circle cx="19.4035" cy="19.4034" r="15" transform="rotate(-111.161 19.4035 19.4034)" fill="black"/>
<g clip-path="url(#clip0_14_4640)">
<path d="M20.636 12.1281L11.2297 21.9294C11.1536 22.0091 11.1017 22.1088 11.0802 22.2169C11.0587 22.325 11.0684 22.4369 11.1082 22.5397C11.148 22.6424 11.2162 22.7317 11.3048 22.7971C11.3935 22.8626 11.499 22.9014 11.6089 22.9091L25.1629 23.8226C25.2819 23.8308 25.4005 23.8022 25.5026 23.7406C25.6048 23.679 25.6854 23.5875 25.7337 23.4784V23.4784C25.7808 23.3721 25.7949 23.2542 25.7741 23.1398C25.7534 23.0255 25.6988 22.92 25.6174 22.837L21.4223 18.5471L21.6357 12.5507C21.642 12.4332 21.6123 12.3164 21.5507 12.2161C21.4891 12.1157 21.3984 12.0365 21.2907 11.9889C21.183 11.9413 21.0634 11.9276 20.9477 11.9496C20.832 11.9716 20.7257 12.0283 20.643 12.1122L20.636 12.1281ZM20.2473 18.7512L20.2384 19.001L20.4132 19.1798L23.7166 22.5871L12.927 21.8356L20.3985 14.0153L20.2473 18.7512Z" fill="white"/>
</g>
<defs>
<clipPath id="clip0_14_4640">
<rect width="18.57" height="18.57" fill="white" transform="translate(7.82214 23.8117) rotate(-66.1612)"/>
</clipPath>
</defs>
</svg>
