<svg width="14" height="14" viewBox="0 0 14 14" fill="none" xmlns="http://www.w3.org/2000/svg">
<g clip-path="url(#clip0_7_3852)">
<path d="M7.00006 2.8525L8.20756 5.29375L8.40881 5.73125L8.84631 5.79688L11.5413 6.18625L9.62506 8.0675L9.29693 8.38688L9.37568 8.82438L9.83506 11.5062L7.42443 10.2419L7.00006 10.0625L6.59318 10.2769L4.18256 11.5238L4.62006 8.84187L4.69881 8.40437L4.37506 8.0675L2.44131 6.16438L5.13631 5.775L5.57381 5.70937L5.77506 5.27187L7.00006 2.8525ZM7.00006 0.875L5.00943 4.90875L0.560059 5.55187L3.78006 8.69313L3.01881 13.125L7.00006 11.0337L10.9813 13.125L10.2201 8.69313L13.4401 5.55625L8.99068 4.90875L7.00006 0.875Z" fill="#42BE65"/>
</g>
<defs>
<clipPath id="clip0_7_3852">
<rect width="14" height="14" fill="white"/>
</clipPath>
</defs>
</svg>
