<svg width="43" height="43" viewBox="0 0 43 43" fill="none" xmlns="http://www.w3.org/2000/svg">
<path d="M21.2211 2.65263C17.3532 2.65734 13.645 4.19595 10.91 6.93098C8.17492 9.66602 6.63631 13.3742 6.63161 17.2421C6.62704 20.4031 7.65969 23.4782 9.57112 25.9958C9.57112 25.9958 9.96902 26.519 10.0329 26.5949L21.2211 39.7895L32.4139 26.5892C32.4727 26.5185 32.871 25.9953 32.871 25.9953L32.873 25.9921C34.7833 23.4755 35.8153 20.4016 35.8106 17.2421C35.8059 13.3742 34.2672 9.66602 31.5322 6.93098C28.7972 4.19595 25.089 2.65734 21.2211 2.65263ZM21.2211 22.5474C20.1718 22.5474 19.1461 22.2362 18.2736 21.6533C17.4012 21.0703 16.7212 20.2418 16.3197 19.2723C15.9181 18.3029 15.8131 17.2362 16.0178 16.2071C16.2225 15.178 16.7277 14.2327 17.4697 13.4907C18.2116 12.7488 19.157 12.2435 20.1861 12.0388C21.2152 11.8341 22.2819 11.9391 23.2513 12.3407C24.2207 12.7422 25.0493 13.4222 25.6322 14.2947C26.2152 15.1671 26.5263 16.1928 26.5263 17.2421C26.5248 18.6487 25.9653 19.9972 24.9707 20.9917C23.9761 21.9863 22.6276 22.5458 21.2211 22.5474Z" fill="black"/>
<circle cx="21.8842" cy="16.5789" r="7.29474" fill="black"/>
<path d="M21.8014 13.0145H20.6409V18.2368H21.8014V13.0145Z" fill="white"/>
<path d="M22.9619 7.7921H19.4803V8.95263H22.9619V7.7921Z" fill="white"/>
<path d="M28.1843 11.8539L27.3603 11.0358L26.0547 12.3414C24.986 11.1072 23.4829 10.3322 21.8576 10.1774C20.2323 10.0226 18.6099 10.5 17.3275 11.5103C16.045 12.5206 15.2011 13.9861 14.9711 15.6025C14.741 17.2188 15.1426 18.8616 16.0923 20.1896C17.042 21.5176 18.4668 22.4286 20.0707 22.7334C21.6746 23.0381 23.3343 22.7133 24.7049 21.8262C26.0755 20.9392 27.0517 19.5581 27.4306 17.9701C27.8095 16.3821 27.562 14.7091 26.7395 13.2988L28.1843 11.8539ZM21.2212 21.7184C20.1883 21.7184 19.1786 21.4121 18.3198 20.8383C17.461 20.2645 16.7916 19.4488 16.3963 18.4946C16.0011 17.5403 15.8976 16.4903 16.0991 15.4772C16.3006 14.4642 16.798 13.5336 17.5284 12.8033C18.2587 12.0729 19.1893 11.5755 20.2023 11.374C21.2154 11.1725 22.2654 11.2759 23.2197 11.6712C24.1739 12.0665 24.9896 12.7358 25.5634 13.5947C26.1372 14.4535 26.4435 15.4632 26.4435 16.496C26.4435 17.8811 25.8933 19.2094 24.9139 20.1888C23.9345 21.1682 22.6062 21.7184 21.2212 21.7184Z" fill="white"/>
</svg>
